HIERARCHY
ROOT Hips
{
  OFFSET 0.000000 0.000000 0.000000
  CHANNELS 6 Xposition Yposition Zposition Zrotation Yrotation Xrotation
  JOINT Spine
  {
    OFFSET 0.762862 23.197727 -6.058858
    CHANNELS 3 Zrotation Yrotation Xrotation
    JOINT Chest
    {
      OFFSET 0.762862 23.197727 -6.058858
      CHANNELS 3 Zrotation Yrotation Xrotation
      JOINT Neck
      {
        OFFSET -0.270074 9.229822 -3.797407
        CHANNELS 3 Zrotation Yrotation Xrotation
        JOINT Head
        {
          OFFSET 0.225285 8.430608 -7.939136
          CHANNELS 3 Zrotation Yrotation Xrotation
          End Site
          {
            OFFSET 0.067585 2.529182 -2.381741
          }
        }
      }
      JOINT LeftShoulder
      {
        OFFSET 17.595006 0.044015 0.996102
        CHANNELS 3 Zrotation Yrotation Xrotation
        JOINT LeftArm
        {
          OFFSET 3.473531 -23.049457 3.982832
          CHANNELS 3 Zrotation Yrotation Xrotation
          JOINT LeftForeArm
          {
            OFFSET 3.218371 -22.980839 -10.241008
            CHANNELS 3 Zrotation Yrotation Xrotation
            JOINT LeftHand
            {
              OFFSET -0.008887 -5.924601 -2.989147
              CHANNELS 3 Zrotation Yrotation Xrotation
              End Site
              {
                OFFSET -0.002666 -1.777380 -0.896744
              }
            }
          }
        }
      }
      JOINT RightShoulder
      {
        OFFSET -17.595006 -0.044015 -0.996102
        CHANNELS 3 Zrotation Yrotation Xrotation
        JOINT RightArm
        {
          OFFSET -5.553442 -24.118242 6.751946
          CHANNELS 3 Zrotation Yrotation Xrotation
          JOINT RightForeArm
          {
            OFFSET -3.099014 -24.977112 -8.059516
            CHANNELS 3 Zrotation Yrotation Xrotation
            JOINT RightHand
            {
              OFFSET 0.298828 -5.701374 -2.573080
              CHANNELS 3 Zrotation Yrotation Xrotation
              End Site
              {
                OFFSET 0.089648 -1.710412 -0.771924
              }
            }
          }
        }
      }
    }
  }
  JOINT LeftUpLeg
  {
    OFFSET 11.990773 -0.614304 0.788698
    CHANNELS 3 Zrotation Yrotation Xrotation
    JOINT LeftLeg
    {
      OFFSET -5.144974 -41.347031 -0.530598
      CHANNELS 3 Zrotation Yrotation Xrotation
      JOINT LeftFoot
      {
        OFFSET 2.709190 -35.138144 18.775504
        CHANNELS 3 Zrotation Yrotation Xrotation
        End Site
        {
          OFFSET 0.812757 -10.541443 5.632651
        }
      }
    }
  }
  JOINT RightUpLeg
  {
    OFFSET -11.990773 0.614304 -0.788698
    CHANNELS 3 Zrotation Yrotation Xrotation
    JOINT RightLeg
    {
      OFFSET 0.284998 -37.357294 5.081156
      CHANNELS 3 Zrotation Yrotation Xrotation
      JOINT RightFoot
      {
        OFFSET 4.690763 -28.563407 28.545631
        CHANNELS 3 Zrotation Yrotation Xrotation
        End Site
        {
          OFFSET 1.407229 -8.569022 8.563689
        }
      }
    }
  }
}
MOTION
Frames: 12
Frame Time: 0.083333
0.000000 60.000000 0.000000 0.564097 -0.035218 5.463662 0.564097 -0.035218 5.463662 -0.220810 0.062249 4.903356 1.067447 0.830044 4.108661 0.000000 0.000000 0.000000 5.985908 1.563020 5.864108 -5.916505 3.052480 1.501015 -8.860015 4.799092 2.503990 0.000000 0.000000 0.000000 1.939772 -1.171128 6.954378 1.452309 -0.664409 1.407563 0.654781 -0.373853 -1.554833 0.000000 0.000000 0.000000 0.469504 0.069639 -0.529571 2.084032 1.146319 0.629309 0.000000 0.000000 0.000000 1.428965 0.154586 5.141873 -0.693431 3.125607 26.203827 0.000000 0.000000 0.000000
0.000000 60.000000 0.000000 -0.299579 -0.377007 10.184637 -0.299579 -0.377007 10.184637 0.659020 0.375363 4.836377 1.825131 1.481961 4.268617 0.000000 0.000000 0.000000 7.972145 2.028029 8.776225 -8.374325 5.662395 7.662085 -16.714065 9.328097 4.406956 0.000000 0.000000 0.000000 0.464695 -1.263022 6.020081 1.350994 -0.746763 2.242371 -0.966403 0.282298 -2.545440 0.000000 0.000000 0.000000 -0.010737 -0.359133 2.899625 2.604770 1.431702 0.925287 0.000000 0.000000 0.000000 1.720940 0.145583 11.681744 -1.460812 2.784234 27.549710 0.000000 0.000000 0.000000
0.000000 60.000000 0.000000 -0.381988 -0.436223 11.694902 -0.381988 -0.436223 11.694902 1.600299 0.723088 5.680089 2.274688 1.807633 5.301705 0.000000 0.000000 0.000000 9.518395 2.334247 11.299942 -10.253103 8.213456 13.258857 -23.212153 13.441420 5.837998 0.000000 0.000000 0.000000 -0.257452 -1.500292 6.373689 1.460959 -0.884002 2.947985 -2.722194 1.056303 -2.160847 0.000000 0.000000 0.000000 -0.490584 -0.473999 4.028275 2.543119 1.417602 1.725551 0.000000 0.000000 0.000000 1.364890 0.127945 12.891335 -2.395617 1.239248 20.444372 0.000000 0.000000 0.000000
0.000000 60.000000 0.000000 0.157155 -0.384939 12.647801 0.157155 -0.384939 12.647801 2.814012 1.162673 6.822525 2.865945 2.225733 6.772970 0.000000 0.000000 0.000000 10.463301 2.534367 13.714464 -11.316525 10.508870 18.843868 -26.317615 16.227681 9.273277 0.000000 0.000000 0.000000 -0.967745 -1.728160 6.697673 1.762770 -1.067671 3.491634 -4.234715 1.722976 -2.031612 0.000000 0.000000 0.000000 -1.370752 -0.560140 5.165655 1.565787 0.712387 -0.733934 0.000000 0.000000 0.000000 0.536243 0.111852 13.059616 -2.637042 0.028107 12.900752 0.000000 0.000000 0.000000
0.000000 60.000000 0.000000 1.178000 -0.251893 13.068501 1.178000 -0.251893 13.068501 3.812461 1.506229 6.506703 2.820813 2.194115 6.676885 0.000000 0.000000 0.000000 11.105559 2.649287 15.326797 -12.649778 11.486766 19.055919 -26.056163 16.285404 10.024641 0.000000 0.000000 0.000000 -1.258729 -1.698360 6.263974 2.438063 -1.286028 3.321905 -4.875353 2.085202 -1.153108 0.000000 0.000000 0.000000 -2.142206 -0.583777 5.785360 -0.075156 -0.450787 -5.099131 0.000000 0.000000 0.000000 0.077127 0.105133 13.779474 0.000000 0.000000 0.000000 0.000000 0.000000 0.000000
0.000000 60.000000 0.000000 1.893322 -0.145812 13.013519 1.893322 -0.145812 13.013519 3.986335 1.566694 6.463726 2.698805 2.093698 6.647481 0.000000 0.000000 0.000000 11.138785 2.631784 14.997893 -12.954890 11.226260 17.586304 -23.369918 14.738623 10.485238 0.000000 0.000000 0.000000 -0.904457 -1.906058 7.567271 3.022146 -1.571035 3.810092 -4.438040 1.996392 -0.102352 0.000000 0.000000 0.000000 -1.843542 -0.602925 5.786234 0.183347 -0.116342 -2.747427 0.000000 0.000000 0.000000 -0.086129 0.099727 13.362370 0.000000 0.000000 0.000000 0.000000 0.000000 0.000000
0.000000 60.000000 0.000000 2.306840 -0.031141 11.972837 2.306840 -0.031141 11.972837 4.119767 1.613250 6.407822 2.850514 2.226413 6.571675 0.000000 0.000000 0.000000 9.816119 2.498409 13.835508 -12.323348 9.771015 14.205071 -20.800345 12.502004 7.931528 0.000000 0.000000 0.000000 -0.045414 -2.131437 9.415395 3.020552 -1.659819 4.372454 -4.092917 1.908942 0.607828 0.000000 0.000000 0.000000 -0.883483 -0.608077 5.334860 0.453602 0.235970 -0.087222 0.000000 0.000000 0.000000 0.188136 0.099779 12.298856 0.000000 0.000000 0.000000 0.000000 0.000000 0.000000
0.000000 60.000000 0.000000 2.550245 0.131573 9.623876 2.550245 0.131573 9.623876 4.161033 1.638668 5.427783 2.879537 2.311590 5.697655 0.000000 0.000000 0.000000 8.392559 2.145540 10.052583 -10.955475 7.351288 8.697570 -17.520873 9.683840 3.599238 0.000000 0.000000 0.000000 0.781308 -1.896684 9.096047 2.890653 -1.460689 3.380617 -3.833941 1.764081 0.335951 0.000000 0.000000 0.000000 0.773665 -0.534765 4.053352 0.569955 0.301164 -0.048280 0.000000 0.000000 0.000000 1.028038 0.127377 11.592684 0.000000 0.000000 0.000000 0.000000 0.000000 0.000000
0.000000 60.000000 0.000000 2.455266 0.258600 6.956195 2.455266 0.258600 6.956195 4.148762 1.658392 3.748961 3.102636 2.609579 4.193495 0.000000 0.000000 0.000000 7.183233 1.638627 4.853982 -8.609301 4.916996 4.118477 -11.292975 5.885779 1.122739 0.000000 0.000000 0.000000 1.072304 -1.502770 7.611373 2.569613 -1.073628 1.616003 -4.003894 1.735575 -0.801611 0.000000 0.000000 0.000000 1.482214 -0.222087 1.488585 0.000000 0.000000 0.000000 0.000000 0.000000 0.000000 2.474913 0.181461 10.986700 0.000000 0.000000 0.000000 0.000000 0.000000 0.000000
0.000000 60.000000 0.000000 2.242949 0.241378 6.494821 2.242949 0.241378 6.494821 4.611201 1.841978 3.116240 3.506570 3.007641 3.639269 0.000000 0.000000 0.000000 6.113185 1.435003 4.087310 -5.591818 2.749107 1.096422 -8.100288 4.054776 -0.413302 0.000000 0.000000 0.000000 0.199842 -1.593288 7.213974 2.761335 -0.986893 0.626243 -4.011911 1.653242 -1.725071 0.000000 0.000000 0.000000 1.982677 -0.219251 1.368885 0.000000 0.000000 0.000000 0.000000 0.000000 0.000000 2.785282 0.190312 11.252103 0.000000 0.000000 0.000000 0.000000 0.000000 0.000000
0.000000 60.000000 0.000000 2.240935 0.251997 6.285706 2.240935 0.251997 6.285706 4.826154 1.944597 2.106608 3.742572 3.287184 2.811636 0.000000 0.000000 0.000000 5.267865 1.308794 3.962625 -3.788070 1.607109 -0.512633 -8.413324 4.144964 -1.154783 0.000000 0.000000 0.000000 -0.519688 -1.658506 6.813129 3.433644 -1.072901 -0.251221 -4.023687 1.488407 -3.542648 0.000000 0.000000 0.000000 1.804836 -0.399070 2.679547 0.000000 0.000000 0.000000 0.000000 0.000000 0.000000 2.502293 0.154547 12.890462 0.000000 0.000000 0.000000 0.000000 0.000000 0.000000
0.000000 60.000000 0.000000 2.324767 0.285561 5.974374 2.324767 0.285561 5.974374 5.108729 2.075969 1.061910 4.065594 3.650384 1.972752 0.000000 0.000000 0.000000 5.181299 1.237984 3.383698 -2.777477 1.024066 -1.302227 -8.864635 4.323139 -1.618459 0.000000 0.000000 0.000000 -1.594113 -1.740023 6.115163 4.540579 -1.436047 -0.223174 -3.971062 1.466706 -3.536215 0.000000 0.000000 0.000000 1.679457 -0.656296 4.555424 0.000000 0.000000 0.000000 0.000000 0.000000 0.000000 2.581615 0.134958 14.173419 0.000000 0.000000 0.000000 0.000000 0.000000 0.000000
